<?xml version="1.0" encoding="utf-8"?>
<!-- Generator: Adobe Illustrator 28.1.0, SVG Export Plug-In . SVG Version: 6.00 Build 0)  -->
<svg version="1.1" id="Ebene_1" xmlns="http://www.w3.org/2000/svg" xmlns:xlink="http://www.w3.org/1999/xlink" x="0px" y="0px"
	 viewBox="0 0 155.3 155.3" style="enable-background:new 0 0 155.3 155.3;" xml:space="preserve">
<style type="text/css">
	.st0{fill:#FFFFFF;}
</style>
<g>
	<path class="st0" d="M0,77.6C-0.1,35.1,34.6,0.1,76.8,0c43.7-0.1,78.4,34.2,78.5,77.4c0.1,43.2-34.4,77.9-77.6,77.9
		C34.6,155.4,0.1,120.9,0,77.6z M142.5,77.7c0-35.8-29.1-64.9-64.6-64.9c-36,0-65.1,29-65.1,64.8c0,36.1,29.1,64.9,65.4,64.9
		C113.4,142.5,142.6,113.1,142.5,77.7z"/>
	<path class="st0" d="M114.9,37.3c-12,30.5-23.8,60.2-35.7,90.5c-4.8-11.4-9.5-22.2-13.7-33.2c-1.6-4-3.9-6.4-7.9-7.9
		C46.7,82.4,36,77.7,24.4,72.9C54.8,60.9,84.5,49.2,114.9,37.3z M40.7,73c9,3.7,17.2,7.2,25.4,10.5c0.8,0.3,2.2-0.1,2.8-0.7
		c11.3-11.1,22.5-22.3,33.7-33.5c-0.1-0.2-0.2-0.4-0.3-0.5C82,56.7,61.7,64.7,40.7,73z"/>
</g>
</svg>
