<?xml version="1.0" encoding="utf-8"?>
<!-- Generator: Adobe Illustrator 27.3.1, SVG Export Plug-In . SVG Version: 6.00 Build 0)  -->
<svg version="1.1" id="Ebene_1" xmlns="http://www.w3.org/2000/svg" xmlns:xlink="http://www.w3.org/1999/xlink" x="0px" y="0px"
	 viewBox="0 0 123.94 23.27" style="enable-background:new 0 0 123.94 23.27;" xml:space="preserve">
<style type="text/css">
	.st0{fill:#2655AB;}
	.st1{fill:#00B7B0;}
</style>
<polygon class="st0" points="21.4,6.95 13.42,6.95 10.37,11.62 17.51,11.62 "/>
<polygon class="st0" points="12.05,0 4.68,0 2.3,11.62 9.66,11.62 "/>
<polygon class="st1" points="9.43,13.07 9.36,13.07 9.44,12.72 2.07,12.72 0,22.79 7.37,22.79 9.07,14.52 9.13,14.52 10.47,22.79 
	18.45,22.79 15.74,13.73 16.59,12.72 9.65,12.72 "/>
<path class="st0" d="M30.63,10.77c0.59,0,0.97,0.23,1.13,0.85h7.51c-0.48-3.17-3.01-5.15-7.76-5.15s-8.09,1.98-9.87,5.15h7.51
	C29.56,11,30.04,10.77,30.63,10.77z"/>
<path class="st1" d="M31.52,14.87c-0.65,3.16-1.39,4.1-2.58,4.1s-1.54-0.95-0.89-4.1c0.18-0.89,0.37-1.58,0.58-2.15H21.1
	c-0.28,0.68-0.51,1.39-0.66,2.15c-1.03,5.02,1.41,8.4,7.62,8.4s10.04-3.38,11.07-8.4c0.16-0.76,0.22-1.47,0.22-2.15h-7.52
	C31.8,13.29,31.7,13.98,31.52,14.87z"/>
<path class="st1" d="M39.32,22.79h7.37l2.03-9.88c0.01-0.07,0.03-0.13,0.05-0.19h-7.38L39.32,22.79z"/>
<path class="st0" d="M50.54,11.14c0.44,0,0.74,0.16,0.9,0.47h7.69c0.55-3.72-1.3-5.15-4.22-5.15c-1.74,0-3.68,0.6-5.4,2.87h-0.06
	l0.31-2.4h-7.18l-0.96,4.67h7.74C49.7,11.29,50.11,11.14,50.54,11.14z"/>
<path class="st1" d="M51.51,12.98l-2.02,9.82h7.37l2.07-10.07h-7.38C51.54,12.81,51.53,12.89,51.51,12.98z"/>
<polygon class="st0" points="73.96,6.95 70.64,6.95 72.04,0 64.13,2.65 63.28,6.95 61.3,6.95 60.34,11.62 73,11.62 "/>
<path class="st1" d="M60.84,18.82c-0.73,3.54,1.73,4.45,4.6,4.45c1.46,0,3.29-0.32,5.04-0.69l0.96-4.67
	c-0.71,0.19-1.32,0.19-1.83,0.19c-0.88,0-1.16-0.41-0.92-1.61l0.77-3.76h-7.37L60.84,18.82z"/>
<path class="st0" d="M82.13,10.01c1.04,0,1.33,0.47,1.17,1.26l-0.07,0.35h6.62c0.53-3.38-1.07-5.15-6.69-5.15
	c-3.86,0-7.81,0.91-8.94,5.15h6.09C80.67,10.32,81.22,10.01,82.13,10.01z"/>
<path class="st1" d="M82.96,12.91h-0.88c-5.72,0-9.1,1.61-9.9,5.52c-0.64,3.13,1.2,4.83,4.3,4.83c1.67,0,3.4-0.54,4.76-1.99
	l-0.13,1.52h6.45l2.07-10.07H83L82.96,12.91z M82.08,17.21c-0.27,1.29-0.84,2.15-2.12,2.15c-1.13,0-1.58-0.63-1.37-1.64
	c0.18-0.88,0.8-1.83,2.75-1.83h1L82.08,17.21z"/>
<polygon class="st0" points="101.9,0 94.53,0 92.14,11.62 99.51,11.62 "/>
<polygon class="st0" points="111.25,6.95 103.27,6.95 100.22,11.62 107.35,11.62 "/>
<polygon class="st1" points="99.27,13.07 99.21,13.07 99.28,12.72 91.92,12.72 89.85,22.79 97.22,22.79 98.92,14.52 98.98,14.52 
	100.32,22.79 108.3,22.79 105.59,13.73 106.43,12.72 99.5,12.72 "/>
<polygon class="st0" points="123.94,6.95 120.62,6.95 122.02,0 114.1,2.65 113.25,6.95 111.27,6.95 110.31,11.62 122.98,11.62 "/>
<path class="st1" d="M119.43,12.72h-7.37l-1.25,6.09c-0.73,3.54,1.73,4.45,4.6,4.45c1.46,0,3.29-0.32,5.04-0.69l0.96-4.67
	c-0.71,0.19-1.32,0.19-1.83,0.19c-0.88,0-1.16-0.41-0.92-1.61L119.43,12.72z"/>
</svg>
