<?xml version="1.0" encoding="utf-8"?>
<!-- Generator: Adobe Illustrator 27.3.1, SVG Export Plug-In . SVG Version: 6.00 Build 0)  -->
<svg version="1.1" id="Ebene_1" xmlns="http://www.w3.org/2000/svg" xmlns:xlink="http://www.w3.org/1999/xlink" x="0px" y="0px"
	 viewBox="0 0 116.76 23.27" style="enable-background:new 0 0 116.76 23.27;" xml:space="preserve">
<style type="text/css">
	.st0{fill:#00B7B0;}
	.st1{fill:#2655AB;}
</style>
<path class="st0" d="M5.76,16.54c2.13,0.44,2.68,0.57,3.12,0.66c0.91,0.19,0.98,0.69,0.89,1.17C9.61,19.13,9.15,19.73,8,19.73
	c-0.52,0-0.89-0.13-1.12-0.47c-0.21-0.32-0.25-0.85-0.1-1.74H0.14c-0.81,4.23,1.92,5.75,6.89,5.75c6.09,0,8.82-2.18,9.53-5.62
	c0.58-2.84-0.5-4.08-5.13-4.93H1.4C1.26,14.93,2.59,15.87,5.76,16.54z"/>
<path class="st1" d="M8.11,11.18c0.14-0.69,0.61-1.17,1.82-1.17c0.49,0,0.83,0.09,1.02,0.35c0.17,0.23,0.21,0.62,0.1,1.26h6.26
	c0.59-3.98-2.39-5.15-7.02-5.15c-5.35,0-8.06,2.31-8.72,5.15h6.52C8.07,11.49,8.08,11.34,8.11,11.18z"/>
<path class="st0" d="M30,12.91h-3.9l0.04-0.19h-6.87c-0.26,0.64-0.46,1.32-0.61,2.05c-1.32,6.41,2.27,8.49,6.75,8.49
	c5.72,0,8.77-1.96,10.06-5.56h-6.45c-0.45,1.14-1.34,1.64-2.16,1.64c-1.46,0-1.91-0.79-1.53-2.62l0.1-0.47h10.53l0.22-1.07
	c0.18-0.89,0.27-1.7,0.29-2.46h-6.42L30,12.91z"/>
<path class="st1" d="M28.6,10.39c0.84,0,1.38,0.42,1.5,1.23h6.33c-0.32-3.36-2.61-5.15-7.02-5.15c-4.3,0-7.77,1.76-9.61,5.15h6.75
	C27.01,10.81,27.74,10.39,28.6,10.39z"/>
<path class="st0" d="M36.43,22.79h7.37l1.71-8.3c0.15-0.72,0.55-1.43,1.28-1.77H38.5L36.43,22.79z"/>
<path class="st1" d="M51.97,7.2c-0.62-0.38-1.25-0.44-1.86-0.44c-0.94,0-2.05,0.5-3.41,1.93l0.17-1.74h-7.18l-0.96,4.67h12.33
	L51.97,7.2z"/>
<polygon class="st0" points="59.63,16.86 59.57,16.86 59.6,12.72 52.52,12.72 53.36,22.79 63.4,22.79 68.37,12.72 61.29,12.72 "/>
<polygon class="st1" points="59.66,6.95 52.05,6.95 52.43,11.62 59.61,11.62 "/>
<polygon class="st1" points="71.22,6.95 63.61,6.95 61.74,11.62 68.92,11.62 "/>
<polygon class="st1" points="79.62,6.95 72.26,6.95 71.3,11.62 78.66,11.62 "/>
<polygon class="st0" points="69,22.79 76.37,22.79 78.44,12.72 71.07,12.72 "/>
<polygon class="st1" points="81.05,0 73.68,0 72.68,4.86 80.05,4.86 "/>
<path class="st0" d="M79.84,14.77c-1.32,6.41,2.27,8.49,7.05,8.49c6.06,0,9.21-2.46,10.21-6.88h-6.82c-0.57,2.05-1.1,2.97-2.28,2.97
	c-1.13,0-1.62-0.57-0.86-4.26c0.2-0.97,0.4-1.75,0.59-2.37h-7.28C80.2,13.36,79.99,14.04,79.84,14.77z"/>
<path class="st1" d="M89.93,10.39c0.8,0,1.11,0.42,1.14,1.23h6.74c-0.12-3.21-2.26-5.15-7.29-5.15c-4.25,0-7.71,1.76-9.55,5.15h7.19
	C88.67,10.62,89.22,10.39,89.93,10.39z"/>
<path class="st0" d="M110.29,12.91h-3.9l0.04-0.19h-6.87c-0.26,0.64-0.46,1.32-0.61,2.05c-1.32,6.41,2.27,8.49,6.75,8.49
	c5.72,0,8.77-1.96,10.06-5.56h-6.45c-0.45,1.14-1.34,1.64-2.16,1.64c-1.46,0-1.91-0.79-1.53-2.62l0.1-0.47h10.53l0.22-1.07
	c0.18-0.89,0.27-1.7,0.29-2.46h-6.42L110.29,12.91z"/>
<path class="st1" d="M108.9,10.39c0.84,0,1.38,0.42,1.5,1.23h6.33c-0.32-3.36-2.61-5.15-7.02-5.15c-4.3,0-7.77,1.76-9.61,5.15h6.75
	C107.3,10.81,108.03,10.39,108.9,10.39z"/>
</svg>
